<mxfile host="app.diagrams.net" modified="2023-06-07T01:35:46.898Z" agent="Mozilla/5.0 (Windows NT 10.0; Win64; x64) AppleWebKit/537.36 (KHTML, like Gecko) Chrome/114.0.0.0 Safari/537.36" version="21.3.6" etag="0usTraqgGfNUR35Nwf9V" type="github">
  <diagram name="PÃ¡gina-1" id="RE9nrga9dRZXqzy8PJfx">
    <mxGraphModel>
      <root>
        <mxCell id="0" />
        <mxCell id="1" parent="0" />
      </root>
    </mxGraphModel>
  </diagram>
</mxfile>
